<svg
	viewBox="0 200 800 800"
	xmlns="http://www.w3.org/2000/svg">
	<defs>
		<linearGradient id="gradient" x1="0%" y1="50%" x2="100%" y2="50%">
			<stop offset="0%" stop-color="#63171f"></stop>
			<stop offset="100%" stop-color="#efd6eb"></stop>
		</linearGradient>
	</defs>
  <path
		d="M 0,1200 C 0,1200 0,1050 0,1050 C 21.362972508591064,924.615058910162 42.72594501718213,799.230117820324 63,829 C 83.27405498281787,858.769882179676 102.45919243986253,1043.694587628866 143,1043 C 183.54080756013747,1042.305412371134 245.43728522336772,855.9915316642123 292,907 C 338.5627147766323,958.0084683357877 369.79166666666663,1246.3392857142856 402,1234 C 434.20833333333337,1221.6607142857144 467.3960481099657,908.651325478645 499,914 C 530.6039518900343,919.348674521355 560.6241408934708,1243.055412371134 607,1286 C 653.3758591065292,1328.944587628866 716.1073883161513,1091.1270250368188 751,1005 C 785.8926116838487,918.8729749631812 792.9463058419244,984.4364874815906 800,1050 C 800,1050 800,1200 800,1200 Z"
		stroke="none"
		stroke-width="0"
		fill="url(#gradient)"
		fill-opacity="0.857"
	></path>
<path
		d="M 0,1200 C 0,1200 0,900 0,900 C 75.05848060873835,868.2488954344625 150.1169612174767,836.497790868925 192,773 C 233.8830387825233,709.502209131075 242.5906357388316,614.2577319587627 243,705 C 243.4093642611684,795.7422680412373 235.5204958271969,1072.4712812960236 283,1075 C 330.4795041728031,1077.5287187039764 433.32738095238096,805.8571428571429 500,785 C 566.672619047619,764.1428571428571 597.1699803632794,994.1001472754049 600,1029 C 602.8300196367206,1063.8998527245951 577.9926975945017,903.7422680412371 620,850 C 662.0073024054983,796.2577319587629 770.8592292587138,848.9307805596465 812,875 C 853.1407707412862,901.0692194403535 826.5703853706432,900.5346097201768 800,900 C 800,900 800,1200 800,1200 Z"
		stroke="none"
		stroke-width="0"
		fill="url(#gradient)"
		fill-opacity="0.714"
	></path>
<path
		d="M 0,1200 C 0,1200 0,750 0,750 C 81.99975454099165,837.639175257732 163.9995090819833,925.2783505154639 180,973 C 196.0004909180167,1020.7216494845361 146.00171821305844,1028.5257731958764 162,901 C 177.99828178694156,773.4742268041238 259.99361806578304,510.6185567010309 292,517 C 324.00638193421696,523.3814432989691 306.0238095238095,799.0000000000001 374,862 C 441.9761904761905,924.9999999999999 595.9111438389789,775.3814432989691 647,673 C 698.0888561610211,570.6185567010309 646.3316151202748,515.4742268041238 661,545 C 675.6683848797252,574.5257731958762 756.7623956799215,688.7216494845362 791,737 C 825.2376043200785,785.2783505154638 812.6188021600392,767.639175257732 800,750 C 800,750 800,1200 800,1200 Z"
		stroke="none"
		stroke-width="0"
		fill="url(#gradient)"
		fill-opacity="0.571"
	></path>
<path
		d="M 0,1200 C 0,1200 0,600 0,600 C 63.494415807560145,676.2036082474227 126.98883161512029,752.4072164948454 171,695 C 215.0111683848797,637.5927835051546 239.53908934707903,446.57474226804123 249,463 C 258.460910652921,479.42525773195877 252.85481099656363,703.2938144329896 280,715 C 307.14518900343637,726.7061855670104 367.0416666666666,526.25 404,515 C 440.9583333333334,503.75 454.97852233676974,681.7061855670104 503,777 C 551.0214776632303,872.2938144329896 633.0442439862543,884.9252577319587 703,822 C 772.9557560137457,759.0747422680413 830.8445017182131,620.5927835051547 845,571 C 859.1554982817869,521.4072164948453 829.5777491408935,560.7036082474226 800,600 C 800,600 800,1200 800,1200 Z"
		stroke="none"
		stroke-width="0"
		fill="url(#gradient)"
		fill-opacity="0.429"
	></path>
<path
		d="M 0,1200 C 0,1200 0,450 0,450 C 56.746072655866456,478.4661266568483 113.49214531173291,506.9322533136966 147,464 C 180.5078546882671,421.0677466863034 190.77749140893474,306.7371134020618 243,268 C 295.22250859106526,229.26288659793818 389.39788905252817,266.11929307805593 426,389 C 462.60211094747183,511.88070692194407 441.6309523809524,720.7857142857143 471,682 C 500.3690476190476,643.2142857142857 580.0783014236623,356.73784977908684 593,323 C 605.9216985763377,289.26215022091316 552.0558419243986,508.2628865979382 601,585 C 649.9441580756014,661.7371134020618 801.6983308787434,596.2106038291606 852,550 C 902.3016691212566,503.78939617083944 851.1508345606283,476.8946980854197 800,450 C 800,450 800,1200 800,1200 Z"
		stroke="none"
		stroke-width="0"
		fill="url(#gradient)"
		fill-opacity="0.286"
	></path>
<path
		d="M 0,1200 C 0,1200 0,300 0,300 C 70.17390770741285,400.9267304860088 140.3478154148257,501.8534609720176 198,531 C 255.6521845851743,560.1465390279824 300.78264604811,517.5128865979382 310,479 C 319.21735395189,440.4871134020619 292.52160039273446,406.0949926362298 309,346 C 325.47839960726554,285.9050073637702 385.13095238095235,200.10714285714283 416,154 C 446.86904761904765,107.89285714285715 448.9545900834561,101.47643593519884 520,102 C 591.0454099165439,102.52356406480116 731.0506872852233,109.98711340206185 763,122 C 794.9493127147767,134.01288659793815 718.8426607756504,150.57511045655377 707,181 C 695.1573392243496,211.42488954344623 747.5786696121747,255.7124447717231 800,300 C 800,300 800,1200 800,1200 Z"
		stroke="none"
		stroke-width="0"
		fill="url(#gradient)"
		fill-opacity="0.143"
	></path>
<path
		d="M 0,1200 C 0,1200 0,150 0,150 C 72.89979135984291,253.79547128129605 145.79958271968582,357.5909425625921 168,299 C 190.20041728031418,240.40905743740794 161.70146048109964,19.431701030927826 177,-46 C 192.29853951890036,-111.43170103092783 251.39457535591555,-21.317746686303387 316,-6 C 380.60542464408445,9.317746686303389 450.7202380952381,-50.16071428571428 500,-32 C 549.2797619047619,-13.839285714285722 577.724472263132,81.9606038291605 603,181 C 628.275527736868,280.0393961708395 650.3818728522336,382.3182989690722 674,358 C 697.6181271477664,333.6817010309278 722.7480363279333,182.7662002945508 744,127 C 765.2519636720667,71.2337997054492 782.6259818360334,110.6168998527246 800,150 C 800,150 800,1200 800,1200 Z"
		stroke="none"
		stroke-width="0"
		fill="url(#gradient)"
		fill-opacity="0"
	></path>
<svg viewBox="0 0 1024 1024" x="126" y="781" width="81" height="81"><path d="M742.91234535 34.08587711c-97.53240803 0-182.06610341 51.36947446-230.83230744 127.83425311-48.89914851-76.46477872-133.4260604-127.83425308-230.83095126-127.83425311-152.02336511 0-275.30223533 123.15270798-275.30223534 275.17607303 0 39.27152668 6.11273308 76.46477872 20.93332874 110.27608641 102.08643475 231.87687144 275.82858587 428.37151932 485.19985656 566.7450138 209.24510971-138.37349448 382.98861698-334.86814232 485.16729914-566.7450138 14.82873532-33.81130776 20.80716644-71.00455973 20.80716646-110.27608641C1018.05450486 157.23858503 894.9343543 34.08587711 742.91234535 34.08587711z" fill="url(#gradient)" fill-opacity="0.32"></path></svg>
</svg>